<?xml version="1.0" encoding="UTF-8"?>
<svg width="207px" height="275px" viewBox="0 0 207 275" version="1.1" xmlns="http://www.w3.org/2000/svg" xmlns:xlink="http://www.w3.org/1999/xlink">
    <!-- Generator: Sketch 62 (91390) - https://sketch.com -->
    <title>Z</title>
    <desc>Created with Sketch.</desc>
    <g id="Z" stroke="none" stroke-width="1" fill="none" fill-rule="evenodd">
        <path d="M27.3,274.8 L27.3,230.1 L61.5,230.1 L35.4,271.2 L36.6,272.1 L63.3,230.1 L182.1,230.1 L182.1,274.8 L183.3,274.8 L183.3,230.1 L194.1,230.1 L194.1,228.9 L183.3,228.9 L183.3,198.9 L194.1,198.9 L194.1,197.1 L183.3,197.1 L183.3,74.1 L193.8,74.1 L193.8,72.9 L183.3,72.9 L183.3,42.9 L193.8,42.9 L193.8,41.1 L183.9,41.1 L206.4,5.7 L205.2,5.1 L183.3,39 L183.3,0.3 L182.1,0.3 L182.1,41.1 L147,41.1 L172.8,0.9 L171.6,0 L145.2,41.1 L27.3,41.1 L27.3,0.3 L26.1,0.3 L26.1,41.1 L3,41.1 L3,42.9 L26.1,42.9 L26.1,72.9 L3,72.9 L3,74.1 L26.1,74.1 L26.1,197.1 L6.3,197.1 L6.3,198.9 L26.1,198.9 L26.1,227.4 L24.9,228.9 L6.3,228.9 L6.3,230.1 L24.3,230.1 L0,268.2 L1.2,268.8 L26.1,230.4 L26.1,274.8 L27.3,274.8 Z M182.1,72.9 L163.8,72.9 L182.1,44.1 L182.1,72.9 Z M182.1,197.1 L84.3,197.1 L162.6,74.1 L182.1,74.1 L182.1,197.1 Z M45.3,197.1 L27.3,197.1 L27.3,74.1 L123.9,74.1 C98.1,115.5 71.4,156 45.3,197.1 Z M27.3,225 L27.3,198.9 L44.4,198.9 L27.3,225 Z" fill="#0F0F0F" fill-rule="nonzero"></path>
    </g>
</svg>