<svg width="280px" height="56px" viewBox="0 0 280 56" version="1.1" xmlns="http://www.w3.org/2000/svg" xmlns:xlink="http://www.w3.org/1999/xlink">
    <title>Zentered</title>
    <g id="Page-1" stroke="none" stroke-width="1" fill="none" fill-rule="evenodd">
        <path d="M35.936,55 L36.872,40.024 L35.144,40.024 C33.2,44.848 32.12,47.44 30.68,49.456 C28.7852152,51.9823797 26.6168281,52.5251428 14.9745281,52.5510052 L9.512,52.552 L9.512,52.264 L36.944,7.336 L36.944,5.104 L3.824,5.104 L3.104,18.928 L4.688,18.928 C6.128,15.256 7.064,12.952 8.504,10.792 C10.3975065,7.91667532 11.9494714,7.56875831 22.8738694,7.55262453 L28.448,7.552 L28.448,7.84 L0.8,52.768 L0.8,55 L35.936,55 Z M58.112,55.864 C64.88,55.864 69.848,52.192 71.792,50.608 L71.792,48.592 C69.128,49.888 65.816,51.616 60.416,51.616 C53.144,51.616 48.248,47.008 48.104,35.128 L72.512,35.128 C72.512,22.096 67.04,17.2 58.112,17.2 C48.752,17.2 40.616,24.76 40.616,36.28 C40.616,47.944 46.376,55.864 58.112,55.864 Z M48.176,32.896 C48.608,23.608 52.568,19.36 57.824,19.36 C63.224,19.36 64.592,23.464 64.592,32.104 L48.176,32.896 Z M92.528,55 L92.528,53.776 L89.648,52.984 C88.208,52.624 87.776,52.264 87.776,49.24 L87.776,23.608 C89.864,22.96 94.04,21.736 97.496,21.736 C101.96,21.736 103.616,23.392 103.616,28.432 L103.616,49.24 C103.616,52.264 103.184,52.624 101.744,52.984 L98.864,53.776 L98.864,55 L115.424,55 L115.424,53.776 L112.544,52.984 C111.248,52.624 110.672,52.048 110.672,49.24 L110.672,26.848 C110.672,20.368 108.224,17.272 101.096,17.272 C96.56,17.272 91.376,19.504 87.848,21.808 L87.56,21.808 L87.704,17.632 L87.2,17.344 L75.968,18.856 L75.968,19.864 L78.632,21.232 C80.36,22.096 80.72,22.24 80.72,25.12 L80.72,49.24 C80.72,52.048 80.216,52.624 78.848,52.984 L75.968,53.776 L75.968,55 L92.528,55 Z M129.608,55.864 C134.36,55.864 137.6,53.56 138.896,52.552 L138.896,51.112 C137.456,51.544 135.368,52.048 133.28,52.048 C130.04,52.048 128.528,50.68 128.528,47.584 L128.528,21.304 L137.888,21.304 L138.608,18.352 L128.528,18.352 L128.528,9.712 L126.8,9.712 C124.856,15.184 121.328,18.568 116.504,20.08 L116.504,21.304 L121.472,21.304 L121.472,48.304 C121.472,53.776 125.144,55.864 129.608,55.864 Z M158.192,55.864 C164.96,55.864 169.928,52.192 171.872,50.608 L171.872,48.592 C169.208,49.888 165.896,51.616 160.496,51.616 C153.224,51.616 148.328,47.008 148.184,35.128 L172.592,35.128 C172.592,22.096 167.12,17.2 158.192,17.2 C148.832,17.2 140.696,24.76 140.696,36.28 C140.696,47.944 146.456,55.864 158.192,55.864 Z M148.256,32.896 C148.688,23.608 152.648,19.36 157.904,19.36 C163.304,19.36 164.672,23.464 164.672,32.104 L148.256,32.896 Z M193.328,55 L193.328,53.776 L189.728,52.984 C188.288,52.696 187.856,52.264 187.856,49.24 L187.856,24.544 C189.152,23.104 192.392,21.592 193.832,21.592 C194.48,21.592 194.696,21.808 195.056,22.816 C195.632,24.328 196.424,25.552 199.016,25.552 C201.104,25.552 202.832,24.112 202.832,21.448 C202.832,18.712 201.104,17.2 198.152,17.2 C194.624,17.2 190.448,19.576 187.928,22.096 L187.64,22.096 L187.784,17.776 L187.28,17.344 L176.048,18.856 L176.048,19.864 L178.712,21.232 C180.44,22.096 180.8,22.24 180.8,25.12 L180.8,49.24 C180.8,52.048 180.296,52.624 178.928,52.984 L176.048,53.776 L176.048,55 L193.328,55 Z M222.056,55.864 C228.824,55.864 233.792,52.192 235.736,50.608 L235.736,48.592 C233.072,49.888 229.76,51.616 224.36,51.616 C217.088,51.616 212.192,47.008 212.048,35.128 L236.456,35.128 C236.456,22.096 230.984,17.2 222.056,17.2 C212.696,17.2 204.56,24.76 204.56,36.28 C204.56,47.944 210.32,55.864 222.056,55.864 Z M212.12,32.896 C212.552,23.608 216.512,19.36 221.768,19.36 C227.168,19.36 228.536,23.464 228.536,32.104 L212.12,32.896 Z M267.776,55.864 L279.008,54.352 L279.008,53.344 L276.344,52.12 C274.688,51.328 274.256,50.896 274.256,47.656 L274.256,9.64 C274.256,4.096 274.472,1.072 274.472,1.072 L273.968,0.64 L262.088,1.792 L262.088,2.944 L265.112,4.384 C266.696,5.176 267.2,5.32 267.2,8.2 L267.200809,13.1526016 C267.208719,15.60475 267.272,18.136 267.272,18.136 C265.832,17.704 263.672,17.272 260.72,17.272 C250.496,17.272 240.776,23.752 240.776,37.792 C240.776,51.472 248.12,55.864 254.96,55.864 C259.64,55.864 264.104,53.92 267.128,51.616 L267.416,51.616 L267.272,55.432 L267.776,55.864 Z M258.848,51.904 C252.008,51.904 248.192,47.296 248.192,36.352 C248.192,24.04 252.8,19.576 260.216,19.576 C263.456,19.576 265.616,21.088 267.2,22.6 L267.2,49.528 C265.544,50.32 263.168,51.904 258.848,51.904 Z" id="Zentered" fill="#000000" fill-rule="nonzero"></path>
    </g>
</svg>